<svg width="120" height="85" viewBox="0 0 120 85" fill="none" xmlns="http://www.w3.org/2000/svg">
<g clip-path="url(#clip0_1_23)">
<path d="M13.3009 34.4772C13.0867 34.4772 13.0331 34.3696 13.1402 34.2083L14.2649 32.7562C14.372 32.5949 14.6397 32.4873 14.854 32.4873H33.9727C34.187 32.4873 34.2405 32.6486 34.1334 32.81L33.223 34.2083C33.1159 34.3696 32.8481 34.531 32.6874 34.531L13.3009 34.4772Z" fill="#00ACD7"/>
<path d="M5.21422 39.425C5 39.425 4.94645 39.3175 5.05355 39.1561L6.17819 37.704C6.2853 37.5427 6.55307 37.4351 6.76728 37.4351H31.1879C31.4021 37.4351 31.5092 37.5965 31.4557 37.7578L31.0273 39.0486C30.9737 39.2637 30.7595 39.3712 30.5453 39.3712L5.21422 39.425Z" fill="#00ACD7"/>
<path d="M18.1743 44.3729C17.9601 44.3729 17.9065 44.2115 18.0136 44.0502L18.7634 42.7057C18.8705 42.5443 19.0847 42.383 19.2989 42.383H30.0097C30.224 42.383 30.3311 42.5443 30.3311 42.7594L30.224 44.0502C30.224 44.2653 30.0097 44.4267 29.8491 44.4267L18.1743 44.3729Z" fill="#00ACD7"/>
<path d="M73.7634 33.5092C70.3895 34.3697 68.0867 35.0151 64.7663 35.8756C63.963 36.0907 63.9094 36.1445 63.2132 35.3378C62.4099 34.4235 61.8208 33.8319 60.6962 33.2941C57.3223 31.6269 54.0555 32.1109 51.0029 34.1008C47.3612 36.4672 45.4869 39.9629 45.5404 44.3192C45.594 48.6217 48.5394 52.1712 52.7702 52.7628C56.4119 53.2468 59.4645 51.9561 61.8744 49.2132C62.3564 48.6217 62.7848 47.9763 63.3204 47.2233C61.3924 47.2233 58.9825 47.2233 52.9844 47.2233C51.8598 47.2233 51.592 46.5242 51.9669 45.6099C52.6631 43.9427 53.9484 41.1461 54.6982 39.7478C54.8588 39.4251 55.2337 38.8873 56.037 38.8873C58.7683 38.8873 68.8364 38.8873 75.5307 38.8873C75.4236 40.3394 75.4236 41.7915 75.2094 43.2436C74.6203 47.1158 73.1743 50.6653 70.8179 53.7846C66.962 58.8938 61.9279 62.0669 55.555 62.9274C50.3067 63.6265 45.4333 62.6047 41.149 59.3778C37.186 56.3661 34.9367 52.3863 34.3476 47.4385C33.6514 41.5763 35.3651 36.3058 38.8997 31.6806C42.702 26.679 47.7361 23.5059 53.8948 22.3765C58.9289 21.4623 63.7488 22.0539 68.0867 25.0118C70.925 26.8941 72.9601 29.4756 74.2989 32.5949C74.6203 33.079 74.406 33.3479 73.7634 33.5092Z" fill="#00ACD7"/>
<path d="M91.4898 63.25C86.6164 63.1424 82.1714 61.7441 78.4226 58.5173C75.2629 55.7744 73.2814 52.2787 72.6388 48.1375C71.6748 42.0603 73.335 36.6822 76.9766 31.8957C80.8861 26.7327 85.5988 24.0437 91.9718 22.9143C97.4343 21.9462 102.575 22.484 107.235 25.6571C111.465 28.5613 114.09 32.4873 114.786 37.6503C115.696 44.9107 113.608 50.8266 108.627 55.882C105.093 59.4853 100.755 61.7441 95.7741 62.766C94.3281 63.0349 92.8822 63.0887 91.4898 63.25ZM104.236 41.5225C104.182 40.8233 104.182 40.2855 104.075 39.7477C103.111 34.4234 98.2376 31.4117 93.15 32.5948C88.1694 33.7242 84.9562 36.8973 83.778 41.9527C82.814 46.1477 84.8491 50.3963 88.705 52.1173C91.6504 53.4081 94.5959 53.2467 97.4343 51.7947C101.665 49.5896 103.968 46.1477 104.236 41.5225Z" fill="#00ACD7"/>
</g>
<defs>
<clipPath id="clip0_1_23">
<rect width="110" height="41.25" fill="white" transform="translate(5 22)"/>
</clipPath>
</defs>
</svg>
